<?xml version="1.0" encoding="UTF-8" standalone="no"?>
<svg width="32px" height="21px" viewBox="0 0 32 21" version="1.1" xmlns="http://www.w3.org/2000/svg" xmlns:xlink="http://www.w3.org/1999/xlink">
    <!-- Generator: Sketch 39 (31667) - http://www.bohemiancoding.com/sketch -->
    <title>lorry</title>
    <desc>Created with Sketch.</desc>
    <defs>
        <polygon id="path-1" points="24 6 29 6 31 10 24 10"></polygon>
        <mask id="mask-2" maskContentUnits="userSpaceOnUse" maskUnits="objectBoundingBox" x="0" y="0" width="7" height="4" fill="white">
            <use xlink:href="#path-1"></use>
        </mask>
    </defs>
    <g id="Symbols" stroke="none" stroke-width="1" fill="none" fill-rule="evenodd">
        <g id="proposition-cookies" transform="translate(-157.000000, -19.000000)">
            <g id="lorry">
                <g transform="translate(157.000000, 19.000000)">
                    <rect id="Visual-Guide" x="6" y="0" width="20" height="20"></rect>
                    <path d="M4,18 C4.1947494,19.7341297 8.8052506,19.7341297 9,18 L20,18 L21,18 L22,18 C22.3599045,19.7341289 23.7718377,21 25,21 C27.0825776,21 28.4945107,19.7341289 29,18 L32,18 L32,9 C32,9 28.6666667,4.65680192 27,2 L22,2 L22,0 L0,0 L0,18 L4,18 Z M6,19 C4.91666667,19 4,18.125 4,17 C4,15.875 4.875,15 6,15 C7.125,15 8,15.875 8,17 C8,18.125 7.08333333,19 6,19 L6,19 Z M25,20 C23.9166667,20 23,19.125 23,18 C23,16.875 23.875,16 25,16 C26.125,16 27,16.875 27,18 C27,19.125 26.0833333,20 25,20 L25,20 Z M30,10 L30,13 L30,16 L27,16 C26.8,14.5205267 26.32,14.9914237 25,15 C23.7103092,14.9914237 23.2187806,14.5963269 23,16 C22.9948584,16.0234121 22.7645923,15.9568879 23,16 L22,16 L22,4 L26,4 L30,10 Z M20,2.00000002 L20,4.00000002 L20,16 L9,16 C8.76923077,14.6 8.52307692,15 7,15 C5.47692307,15 4.23076923,14.6 4,16 L2,16 L2,2.00000002 L20,2.00000002 Z" id="Shape" fill="#FFFFFF"></path>
                    <circle id="Oval-104" stroke="#FFFFFF" stroke-width="2" cx="6.5" cy="17.5" r="2.5"></circle>
                    <circle id="Oval-104-Copy" stroke="#FFFFFF" stroke-width="2" cx="25.5" cy="17.5" r="2.5"></circle>
                    <use id="Rectangle-581" stroke="#FFFFFF" mask="url(#mask-2)" stroke-width="2" xlink:href="#path-1"></use>
                </g>
            </g>
        </g>
    </g>
</svg>